<svg xmlns="http://www.w3.org/2000/svg" viewBox="0 0 64 64">
  <defs>
    <linearGradient id="g" x1="10" x2="54" y1="8" y2="56" gradientUnits="userSpaceOnUse">
      <stop stop-color="#67e8f9"/>
      <stop offset="0.55" stop-color="#8b5cf6"/>
      <stop offset="1" stop-color="#d946ef"/>
    </linearGradient>
  </defs>
  <rect width="64" height="64" rx="18" fill="#020617"/>
  <rect x="5" y="5" width="54" height="54" rx="15" fill="url(#g)" opacity="0.18"/>
  <path fill="url(#g)" d="M18 39.4c1.8 1.9 3.7 2.8 5.9 2.8 2.7 0 4.2-1.5 4.2-4.5V19h6.3v18.9c0 3.5-.9 6.1-2.8 7.9-1.9 1.8-4.5 2.7-7.8 2.7-4.1 0-7.3-1.5-9.6-4.4l3.8-4.7Zm24.3 9.1c-3.8 0-6.9-1.1-9.2-3.2l3.2-4.7c1.8 1.5 3.8 2.3 6.1 2.3 2 0 3-.7 3-2 0-.7-.3-1.2-.9-1.6-.6-.4-1.8-.9-3.5-1.4-2.6-.8-4.5-1.8-5.7-3-1.2-1.2-1.8-2.9-1.8-5 0-2.4.9-4.4 2.8-5.9 1.9-1.5 4.3-2.2 7.3-2.2 3.3 0 6 1 8.1 2.9l-3.1 4.6c-1.5-1.2-3.2-1.8-5.1-1.8-1.8 0-2.7.6-2.7 1.8 0 .7.3 1.2.9 1.5.6.4 1.8.8 3.5 1.4 2.7.9 4.7 1.9 5.9 3.1 1.2 1.2 1.8 2.9 1.8 5 0 2.6-1 4.6-2.9 6.1-1.9 1.4-4.5 2.1-7.7 2.1Z"/>
</svg>
